<?xml version="1.0" encoding="utf-8" standalone="no"?>
<!DOCTYPE svg PUBLIC "-//W3C//DTD SVG 1.1//EN"
  "http://www.w3.org/Graphics/SVG/1.1/DTD/svg11.dtd">
<svg xmlns:xlink="http://www.w3.org/1999/xlink" width="512.399934pt" height="296.39952pt" viewBox="0 0 512.399934 296.39952" xmlns="http://www.w3.org/2000/svg" version="1.1">
 <metadata>
  <rdf:RDF xmlns:dc="http://purl.org/dc/elements/1.1/" xmlns:cc="http://creativecommons.org/ns#" xmlns:rdf="http://www.w3.org/1999/02/22-rdf-syntax-ns#">
   <cc:Work>
    <dc:type rdf:resource="http://purl.org/dc/dcmitype/StillImage"/>
    <dc:date>2024-12-10T22:26:37.875629</dc:date>
    <dc:format>image/svg+xml</dc:format>
    <dc:creator>
     <cc:Agent>
      <dc:title>Matplotlib v3.7.0, https://matplotlib.org/</dc:title>
     </cc:Agent>
    </dc:creator>
   </cc:Work>
  </rdf:RDF>
 </metadata>
 <defs>
  <style type="text/css">*{stroke-linejoin: round; stroke-linecap: butt}</style>
 </defs>
 <g id="figure_1">
  <g id="patch_1">
   <path d="M 0 296.39952 
L 512.399934 296.39952 
L 512.399934 0 
L 0 0 
z
" style="fill: #ffffff"/>
  </g>
  <g id="axes_1">
   <g id="patch_2">
    <path d="M 31.0325 262.71452 
L 211.755454 262.71452 
L 211.755454 33.085 
L 31.0325 33.085 
z
" style="fill: #ffffff"/>
   </g>
   <g id="patch_3">
    <path d="M 39.24718 262.71452 
L 94.011711 262.71452 
L 94.011711 47.363778 
L 39.24718 47.363778 
z
" clip-path="url(#p16926eb4ba)" style="fill: #decbe4"/>
   </g>
   <g id="patch_4">
    <path d="M 148.776243 262.71452 
L 203.540775 262.71452 
L 203.540775 65.631995 
L 148.776243 65.631995 
z
" clip-path="url(#p16926eb4ba)" style="fill: #fff2ae"/>
   </g>
   <g id="matplotlib.axis_1">
    <g id="xtick_1">
     <g id="line2d_1">
      <defs>
       <path id="m220fdb8bb7" d="M 0 0 
L 0 3.5 
" style="stroke: #000000; stroke-width: 0.8"/>
      </defs>
      <g>
       <use xlink:href="#m220fdb8bb7" x="66.629446" y="262.71452" style="stroke: #000000; stroke-width: 0.8"/>
      </g>
     </g>
     <g id="text_1">
      <!-- AcD -->
      <g transform="translate(58.683821 275.79327) scale(0.08 -0.08)">
       <defs>
        <path id="DejaVuSans-41" d="M 2188 4044 
L 1331 1722 
L 3047 1722 
L 2188 4044 
z
M 1831 4666 
L 2547 4666 
L 4325 0 
L 3669 0 
L 3244 1197 
L 1141 1197 
L 716 0 
L 50 0 
L 1831 4666 
z
" transform="scale(0.015625)"/>
        <path id="DejaVuSans-63" d="M 3122 3366 
L 3122 2828 
Q 2878 2963 2633 3030 
Q 2388 3097 2138 3097 
Q 1578 3097 1268 2742 
Q 959 2388 959 1747 
Q 959 1106 1268 751 
Q 1578 397 2138 397 
Q 2388 397 2633 464 
Q 2878 531 3122 666 
L 3122 134 
Q 2881 22 2623 -34 
Q 2366 -91 2075 -91 
Q 1284 -91 818 406 
Q 353 903 353 1747 
Q 353 2603 823 3093 
Q 1294 3584 2113 3584 
Q 2378 3584 2631 3529 
Q 2884 3475 3122 3366 
z
" transform="scale(0.015625)"/>
        <path id="DejaVuSans-44" d="M 1259 4147 
L 1259 519 
L 2022 519 
Q 2988 519 3436 956 
Q 3884 1394 3884 2338 
Q 3884 3275 3436 3711 
Q 2988 4147 2022 4147 
L 1259 4147 
z
M 628 4666 
L 1925 4666 
Q 3281 4666 3915 4102 
Q 4550 3538 4550 2338 
Q 4550 1131 3912 565 
Q 3275 0 1925 0 
L 628 0 
L 628 4666 
z
" transform="scale(0.015625)"/>
       </defs>
       <use xlink:href="#DejaVuSans-41"/>
       <use xlink:href="#DejaVuSans-63" x="66.658203"/>
       <use xlink:href="#DejaVuSans-44" x="121.638672"/>
      </g>
     </g>
    </g>
    <g id="xtick_2">
     <g id="line2d_2">
      <g>
       <use xlink:href="#m220fdb8bb7" x="176.158509" y="262.71452" style="stroke: #000000; stroke-width: 0.8"/>
      </g>
     </g>
     <g id="text_2">
      <!-- nonAcD -->
      <g transform="translate(160.695384 275.79327) scale(0.08 -0.08)">
       <defs>
        <path id="DejaVuSans-6e" d="M 3513 2113 
L 3513 0 
L 2938 0 
L 2938 2094 
Q 2938 2591 2744 2837 
Q 2550 3084 2163 3084 
Q 1697 3084 1428 2787 
Q 1159 2491 1159 1978 
L 1159 0 
L 581 0 
L 581 3500 
L 1159 3500 
L 1159 2956 
Q 1366 3272 1645 3428 
Q 1925 3584 2291 3584 
Q 2894 3584 3203 3211 
Q 3513 2838 3513 2113 
z
" transform="scale(0.015625)"/>
        <path id="DejaVuSans-6f" d="M 1959 3097 
Q 1497 3097 1228 2736 
Q 959 2375 959 1747 
Q 959 1119 1226 758 
Q 1494 397 1959 397 
Q 2419 397 2687 759 
Q 2956 1122 2956 1747 
Q 2956 2369 2687 2733 
Q 2419 3097 1959 3097 
z
M 1959 3584 
Q 2709 3584 3137 3096 
Q 3566 2609 3566 1747 
Q 3566 888 3137 398 
Q 2709 -91 1959 -91 
Q 1206 -91 779 398 
Q 353 888 353 1747 
Q 353 2609 779 3096 
Q 1206 3584 1959 3584 
z
" transform="scale(0.015625)"/>
       </defs>
       <use xlink:href="#DejaVuSans-6e"/>
       <use xlink:href="#DejaVuSans-6f" x="63.378906"/>
       <use xlink:href="#DejaVuSans-6e" x="124.560547"/>
       <use xlink:href="#DejaVuSans-41" x="187.939453"/>
       <use xlink:href="#DejaVuSans-63" x="254.597656"/>
       <use xlink:href="#DejaVuSans-44" x="309.578125"/>
      </g>
     </g>
    </g>
   </g>
   <g id="matplotlib.axis_2">
    <g id="ytick_1">
     <g id="line2d_3">
      <defs>
       <path id="m676cfd44f2" d="M 0 0 
L -3.5 0 
" style="stroke: #000000; stroke-width: 0.8"/>
      </defs>
      <g>
       <use xlink:href="#m676cfd44f2" x="31.0325" y="262.71452" style="stroke: #000000; stroke-width: 0.8"/>
      </g>
     </g>
     <g id="text_3">
      <!-- 0 -->
      <g transform="translate(18.9425 265.753895) scale(0.08 -0.08)">
       <defs>
        <path id="DejaVuSans-30" d="M 2034 4250 
Q 1547 4250 1301 3770 
Q 1056 3291 1056 2328 
Q 1056 1369 1301 889 
Q 1547 409 2034 409 
Q 2525 409 2770 889 
Q 3016 1369 3016 2328 
Q 3016 3291 2770 3770 
Q 2525 4250 2034 4250 
z
M 2034 4750 
Q 2819 4750 3233 4129 
Q 3647 3509 3647 2328 
Q 3647 1150 3233 529 
Q 2819 -91 2034 -91 
Q 1250 -91 836 529 
Q 422 1150 422 2328 
Q 422 3509 836 4129 
Q 1250 4750 2034 4750 
z
" transform="scale(0.015625)"/>
       </defs>
       <use xlink:href="#DejaVuSans-30"/>
      </g>
     </g>
    </g>
    <g id="ytick_2">
     <g id="line2d_4">
      <g>
       <use xlink:href="#m676cfd44f2" x="31.0325" y="234.365197" style="stroke: #000000; stroke-width: 0.8"/>
      </g>
     </g>
     <g id="text_4">
      <!-- 1 -->
      <g transform="translate(18.9425 237.404572) scale(0.08 -0.08)">
       <defs>
        <path id="DejaVuSans-31" d="M 794 531 
L 1825 531 
L 1825 4091 
L 703 3866 
L 703 4441 
L 1819 4666 
L 2450 4666 
L 2450 531 
L 3481 531 
L 3481 0 
L 794 0 
L 794 531 
z
" transform="scale(0.015625)"/>
       </defs>
       <use xlink:href="#DejaVuSans-31"/>
      </g>
     </g>
    </g>
    <g id="ytick_3">
     <g id="line2d_5">
      <g>
       <use xlink:href="#m676cfd44f2" x="31.0325" y="206.015873" style="stroke: #000000; stroke-width: 0.8"/>
      </g>
     </g>
     <g id="text_5">
      <!-- 2 -->
      <g transform="translate(18.9425 209.055248) scale(0.08 -0.08)">
       <defs>
        <path id="DejaVuSans-32" d="M 1228 531 
L 3431 531 
L 3431 0 
L 469 0 
L 469 531 
Q 828 903 1448 1529 
Q 2069 2156 2228 2338 
Q 2531 2678 2651 2914 
Q 2772 3150 2772 3378 
Q 2772 3750 2511 3984 
Q 2250 4219 1831 4219 
Q 1534 4219 1204 4116 
Q 875 4013 500 3803 
L 500 4441 
Q 881 4594 1212 4672 
Q 1544 4750 1819 4750 
Q 2544 4750 2975 4387 
Q 3406 4025 3406 3419 
Q 3406 3131 3298 2873 
Q 3191 2616 2906 2266 
Q 2828 2175 2409 1742 
Q 1991 1309 1228 531 
z
" transform="scale(0.015625)"/>
       </defs>
       <use xlink:href="#DejaVuSans-32"/>
      </g>
     </g>
    </g>
    <g id="ytick_4">
     <g id="line2d_6">
      <g>
       <use xlink:href="#m676cfd44f2" x="31.0325" y="177.66655" style="stroke: #000000; stroke-width: 0.8"/>
      </g>
     </g>
     <g id="text_6">
      <!-- 3 -->
      <g transform="translate(18.9425 180.705925) scale(0.08 -0.08)">
       <defs>
        <path id="DejaVuSans-33" d="M 2597 2516 
Q 3050 2419 3304 2112 
Q 3559 1806 3559 1356 
Q 3559 666 3084 287 
Q 2609 -91 1734 -91 
Q 1441 -91 1130 -33 
Q 819 25 488 141 
L 488 750 
Q 750 597 1062 519 
Q 1375 441 1716 441 
Q 2309 441 2620 675 
Q 2931 909 2931 1356 
Q 2931 1769 2642 2001 
Q 2353 2234 1838 2234 
L 1294 2234 
L 1294 2753 
L 1863 2753 
Q 2328 2753 2575 2939 
Q 2822 3125 2822 3475 
Q 2822 3834 2567 4026 
Q 2313 4219 1838 4219 
Q 1578 4219 1281 4162 
Q 984 4106 628 3988 
L 628 4550 
Q 988 4650 1302 4700 
Q 1616 4750 1894 4750 
Q 2613 4750 3031 4423 
Q 3450 4097 3450 3541 
Q 3450 3153 3228 2886 
Q 3006 2619 2597 2516 
z
" transform="scale(0.015625)"/>
       </defs>
       <use xlink:href="#DejaVuSans-33"/>
      </g>
     </g>
    </g>
    <g id="ytick_5">
     <g id="line2d_7">
      <g>
       <use xlink:href="#m676cfd44f2" x="31.0325" y="149.317226" style="stroke: #000000; stroke-width: 0.8"/>
      </g>
     </g>
     <g id="text_7">
      <!-- 4 -->
      <g transform="translate(18.9425 152.356601) scale(0.08 -0.08)">
       <defs>
        <path id="DejaVuSans-34" d="M 2419 4116 
L 825 1625 
L 2419 1625 
L 2419 4116 
z
M 2253 4666 
L 3047 4666 
L 3047 1625 
L 3713 1625 
L 3713 1100 
L 3047 1100 
L 3047 0 
L 2419 0 
L 2419 1100 
L 313 1100 
L 313 1709 
L 2253 4666 
z
" transform="scale(0.015625)"/>
       </defs>
       <use xlink:href="#DejaVuSans-34"/>
      </g>
     </g>
    </g>
    <g id="ytick_6">
     <g id="line2d_8">
      <g>
       <use xlink:href="#m676cfd44f2" x="31.0325" y="120.967903" style="stroke: #000000; stroke-width: 0.8"/>
      </g>
     </g>
     <g id="text_8">
      <!-- 5 -->
      <g transform="translate(18.9425 124.007278) scale(0.08 -0.08)">
       <defs>
        <path id="DejaVuSans-35" d="M 691 4666 
L 3169 4666 
L 3169 4134 
L 1269 4134 
L 1269 2991 
Q 1406 3038 1543 3061 
Q 1681 3084 1819 3084 
Q 2600 3084 3056 2656 
Q 3513 2228 3513 1497 
Q 3513 744 3044 326 
Q 2575 -91 1722 -91 
Q 1428 -91 1123 -41 
Q 819 9 494 109 
L 494 744 
Q 775 591 1075 516 
Q 1375 441 1709 441 
Q 2250 441 2565 725 
Q 2881 1009 2881 1497 
Q 2881 1984 2565 2268 
Q 2250 2553 1709 2553 
Q 1456 2553 1204 2497 
Q 953 2441 691 2322 
L 691 4666 
z
" transform="scale(0.015625)"/>
       </defs>
       <use xlink:href="#DejaVuSans-35"/>
      </g>
     </g>
    </g>
    <g id="ytick_7">
     <g id="line2d_9">
      <g>
       <use xlink:href="#m676cfd44f2" x="31.0325" y="92.618579" style="stroke: #000000; stroke-width: 0.8"/>
      </g>
     </g>
     <g id="text_9">
      <!-- 6 -->
      <g transform="translate(18.9425 95.657954) scale(0.08 -0.08)">
       <defs>
        <path id="DejaVuSans-36" d="M 2113 2584 
Q 1688 2584 1439 2293 
Q 1191 2003 1191 1497 
Q 1191 994 1439 701 
Q 1688 409 2113 409 
Q 2538 409 2786 701 
Q 3034 994 3034 1497 
Q 3034 2003 2786 2293 
Q 2538 2584 2113 2584 
z
M 3366 4563 
L 3366 3988 
Q 3128 4100 2886 4159 
Q 2644 4219 2406 4219 
Q 1781 4219 1451 3797 
Q 1122 3375 1075 2522 
Q 1259 2794 1537 2939 
Q 1816 3084 2150 3084 
Q 2853 3084 3261 2657 
Q 3669 2231 3669 1497 
Q 3669 778 3244 343 
Q 2819 -91 2113 -91 
Q 1303 -91 875 529 
Q 447 1150 447 2328 
Q 447 3434 972 4092 
Q 1497 4750 2381 4750 
Q 2619 4750 2861 4703 
Q 3103 4656 3366 4563 
z
" transform="scale(0.015625)"/>
       </defs>
       <use xlink:href="#DejaVuSans-36"/>
      </g>
     </g>
    </g>
    <g id="ytick_8">
     <g id="line2d_10">
      <g>
       <use xlink:href="#m676cfd44f2" x="31.0325" y="64.269256" style="stroke: #000000; stroke-width: 0.8"/>
      </g>
     </g>
     <g id="text_10">
      <!-- 7 -->
      <g transform="translate(18.9425 67.308631) scale(0.08 -0.08)">
       <defs>
        <path id="DejaVuSans-37" d="M 525 4666 
L 3525 4666 
L 3525 4397 
L 1831 0 
L 1172 0 
L 2766 4134 
L 525 4134 
L 525 4666 
z
" transform="scale(0.015625)"/>
       </defs>
       <use xlink:href="#DejaVuSans-37"/>
      </g>
     </g>
    </g>
    <g id="ytick_9">
     <g id="line2d_11">
      <g>
       <use xlink:href="#m676cfd44f2" x="31.0325" y="35.919932" style="stroke: #000000; stroke-width: 0.8"/>
      </g>
     </g>
     <g id="text_11">
      <!-- 8 -->
      <g transform="translate(18.9425 38.959307) scale(0.08 -0.08)">
       <defs>
        <path id="DejaVuSans-38" d="M 2034 2216 
Q 1584 2216 1326 1975 
Q 1069 1734 1069 1313 
Q 1069 891 1326 650 
Q 1584 409 2034 409 
Q 2484 409 2743 651 
Q 3003 894 3003 1313 
Q 3003 1734 2745 1975 
Q 2488 2216 2034 2216 
z
M 1403 2484 
Q 997 2584 770 2862 
Q 544 3141 544 3541 
Q 544 4100 942 4425 
Q 1341 4750 2034 4750 
Q 2731 4750 3128 4425 
Q 3525 4100 3525 3541 
Q 3525 3141 3298 2862 
Q 3072 2584 2669 2484 
Q 3125 2378 3379 2068 
Q 3634 1759 3634 1313 
Q 3634 634 3220 271 
Q 2806 -91 2034 -91 
Q 1263 -91 848 271 
Q 434 634 434 1313 
Q 434 1759 690 2068 
Q 947 2378 1403 2484 
z
M 1172 3481 
Q 1172 3119 1398 2916 
Q 1625 2713 2034 2713 
Q 2441 2713 2670 2916 
Q 2900 3119 2900 3481 
Q 2900 3844 2670 4047 
Q 2441 4250 2034 4250 
Q 1625 4250 1398 4047 
Q 1172 3844 1172 3481 
z
" transform="scale(0.015625)"/>
       </defs>
       <use xlink:href="#DejaVuSans-38"/>
      </g>
     </g>
    </g>
    <g id="text_12">
     <!-- Synaptic weights -->
     <g transform="translate(13.27875 182.05226) rotate(-90) scale(0.08 -0.08)">
      <defs>
       <path id="DejaVuSans-53" d="M 3425 4513 
L 3425 3897 
Q 3066 4069 2747 4153 
Q 2428 4238 2131 4238 
Q 1616 4238 1336 4038 
Q 1056 3838 1056 3469 
Q 1056 3159 1242 3001 
Q 1428 2844 1947 2747 
L 2328 2669 
Q 3034 2534 3370 2195 
Q 3706 1856 3706 1288 
Q 3706 609 3251 259 
Q 2797 -91 1919 -91 
Q 1588 -91 1214 -16 
Q 841 59 441 206 
L 441 856 
Q 825 641 1194 531 
Q 1563 422 1919 422 
Q 2459 422 2753 634 
Q 3047 847 3047 1241 
Q 3047 1584 2836 1778 
Q 2625 1972 2144 2069 
L 1759 2144 
Q 1053 2284 737 2584 
Q 422 2884 422 3419 
Q 422 4038 858 4394 
Q 1294 4750 2059 4750 
Q 2388 4750 2728 4690 
Q 3069 4631 3425 4513 
z
" transform="scale(0.015625)"/>
       <path id="DejaVuSans-79" d="M 2059 -325 
Q 1816 -950 1584 -1140 
Q 1353 -1331 966 -1331 
L 506 -1331 
L 506 -850 
L 844 -850 
Q 1081 -850 1212 -737 
Q 1344 -625 1503 -206 
L 1606 56 
L 191 3500 
L 800 3500 
L 1894 763 
L 2988 3500 
L 3597 3500 
L 2059 -325 
z
" transform="scale(0.015625)"/>
       <path id="DejaVuSans-61" d="M 2194 1759 
Q 1497 1759 1228 1600 
Q 959 1441 959 1056 
Q 959 750 1161 570 
Q 1363 391 1709 391 
Q 2188 391 2477 730 
Q 2766 1069 2766 1631 
L 2766 1759 
L 2194 1759 
z
M 3341 1997 
L 3341 0 
L 2766 0 
L 2766 531 
Q 2569 213 2275 61 
Q 1981 -91 1556 -91 
Q 1019 -91 701 211 
Q 384 513 384 1019 
Q 384 1609 779 1909 
Q 1175 2209 1959 2209 
L 2766 2209 
L 2766 2266 
Q 2766 2663 2505 2880 
Q 2244 3097 1772 3097 
Q 1472 3097 1187 3025 
Q 903 2953 641 2809 
L 641 3341 
Q 956 3463 1253 3523 
Q 1550 3584 1831 3584 
Q 2591 3584 2966 3190 
Q 3341 2797 3341 1997 
z
" transform="scale(0.015625)"/>
       <path id="DejaVuSans-70" d="M 1159 525 
L 1159 -1331 
L 581 -1331 
L 581 3500 
L 1159 3500 
L 1159 2969 
Q 1341 3281 1617 3432 
Q 1894 3584 2278 3584 
Q 2916 3584 3314 3078 
Q 3713 2572 3713 1747 
Q 3713 922 3314 415 
Q 2916 -91 2278 -91 
Q 1894 -91 1617 61 
Q 1341 213 1159 525 
z
M 3116 1747 
Q 3116 2381 2855 2742 
Q 2594 3103 2138 3103 
Q 1681 3103 1420 2742 
Q 1159 2381 1159 1747 
Q 1159 1113 1420 752 
Q 1681 391 2138 391 
Q 2594 391 2855 752 
Q 3116 1113 3116 1747 
z
" transform="scale(0.015625)"/>
       <path id="DejaVuSans-74" d="M 1172 4494 
L 1172 3500 
L 2356 3500 
L 2356 3053 
L 1172 3053 
L 1172 1153 
Q 1172 725 1289 603 
Q 1406 481 1766 481 
L 2356 481 
L 2356 0 
L 1766 0 
Q 1100 0 847 248 
Q 594 497 594 1153 
L 594 3053 
L 172 3053 
L 172 3500 
L 594 3500 
L 594 4494 
L 1172 4494 
z
" transform="scale(0.015625)"/>
       <path id="DejaVuSans-69" d="M 603 3500 
L 1178 3500 
L 1178 0 
L 603 0 
L 603 3500 
z
M 603 4863 
L 1178 4863 
L 1178 4134 
L 603 4134 
L 603 4863 
z
" transform="scale(0.015625)"/>
       <path id="DejaVuSans-20" transform="scale(0.015625)"/>
       <path id="DejaVuSans-77" d="M 269 3500 
L 844 3500 
L 1563 769 
L 2278 3500 
L 2956 3500 
L 3675 769 
L 4391 3500 
L 4966 3500 
L 4050 0 
L 3372 0 
L 2619 2869 
L 1863 0 
L 1184 0 
L 269 3500 
z
" transform="scale(0.015625)"/>
       <path id="DejaVuSans-65" d="M 3597 1894 
L 3597 1613 
L 953 1613 
Q 991 1019 1311 708 
Q 1631 397 2203 397 
Q 2534 397 2845 478 
Q 3156 559 3463 722 
L 3463 178 
Q 3153 47 2828 -22 
Q 2503 -91 2169 -91 
Q 1331 -91 842 396 
Q 353 884 353 1716 
Q 353 2575 817 3079 
Q 1281 3584 2069 3584 
Q 2775 3584 3186 3129 
Q 3597 2675 3597 1894 
z
M 3022 2063 
Q 3016 2534 2758 2815 
Q 2500 3097 2075 3097 
Q 1594 3097 1305 2825 
Q 1016 2553 972 2059 
L 3022 2063 
z
" transform="scale(0.015625)"/>
       <path id="DejaVuSans-67" d="M 2906 1791 
Q 2906 2416 2648 2759 
Q 2391 3103 1925 3103 
Q 1463 3103 1205 2759 
Q 947 2416 947 1791 
Q 947 1169 1205 825 
Q 1463 481 1925 481 
Q 2391 481 2648 825 
Q 2906 1169 2906 1791 
z
M 3481 434 
Q 3481 -459 3084 -895 
Q 2688 -1331 1869 -1331 
Q 1566 -1331 1297 -1286 
Q 1028 -1241 775 -1147 
L 775 -588 
Q 1028 -725 1275 -790 
Q 1522 -856 1778 -856 
Q 2344 -856 2625 -561 
Q 2906 -266 2906 331 
L 2906 616 
Q 2728 306 2450 153 
Q 2172 0 1784 0 
Q 1141 0 747 490 
Q 353 981 353 1791 
Q 353 2603 747 3093 
Q 1141 3584 1784 3584 
Q 2172 3584 2450 3431 
Q 2728 3278 2906 2969 
L 2906 3500 
L 3481 3500 
L 3481 434 
z
" transform="scale(0.015625)"/>
       <path id="DejaVuSans-68" d="M 3513 2113 
L 3513 0 
L 2938 0 
L 2938 2094 
Q 2938 2591 2744 2837 
Q 2550 3084 2163 3084 
Q 1697 3084 1428 2787 
Q 1159 2491 1159 1978 
L 1159 0 
L 581 0 
L 581 4863 
L 1159 4863 
L 1159 2956 
Q 1366 3272 1645 3428 
Q 1925 3584 2291 3584 
Q 2894 3584 3203 3211 
Q 3513 2838 3513 2113 
z
" transform="scale(0.015625)"/>
       <path id="DejaVuSans-73" d="M 2834 3397 
L 2834 2853 
Q 2591 2978 2328 3040 
Q 2066 3103 1784 3103 
Q 1356 3103 1142 2972 
Q 928 2841 928 2578 
Q 928 2378 1081 2264 
Q 1234 2150 1697 2047 
L 1894 2003 
Q 2506 1872 2764 1633 
Q 3022 1394 3022 966 
Q 3022 478 2636 193 
Q 2250 -91 1575 -91 
Q 1294 -91 989 -36 
Q 684 19 347 128 
L 347 722 
Q 666 556 975 473 
Q 1284 391 1588 391 
Q 1994 391 2212 530 
Q 2431 669 2431 922 
Q 2431 1156 2273 1281 
Q 2116 1406 1581 1522 
L 1381 1569 
Q 847 1681 609 1914 
Q 372 2147 372 2553 
Q 372 3047 722 3315 
Q 1072 3584 1716 3584 
Q 2034 3584 2315 3537 
Q 2597 3491 2834 3397 
z
" transform="scale(0.015625)"/>
      </defs>
      <use xlink:href="#DejaVuSans-53"/>
      <use xlink:href="#DejaVuSans-79" x="63.476562"/>
      <use xlink:href="#DejaVuSans-6e" x="122.65625"/>
      <use xlink:href="#DejaVuSans-61" x="186.035156"/>
      <use xlink:href="#DejaVuSans-70" x="247.314453"/>
      <use xlink:href="#DejaVuSans-74" x="310.791016"/>
      <use xlink:href="#DejaVuSans-69" x="350"/>
      <use xlink:href="#DejaVuSans-63" x="377.783203"/>
      <use xlink:href="#DejaVuSans-20" x="432.763672"/>
      <use xlink:href="#DejaVuSans-77" x="464.550781"/>
      <use xlink:href="#DejaVuSans-65" x="546.337891"/>
      <use xlink:href="#DejaVuSans-69" x="607.861328"/>
      <use xlink:href="#DejaVuSans-67" x="635.644531"/>
      <use xlink:href="#DejaVuSans-68" x="699.121094"/>
      <use xlink:href="#DejaVuSans-74" x="762.5"/>
      <use xlink:href="#DejaVuSans-73" x="801.708984"/>
     </g>
    </g>
   </g>
   <g id="LineCollection_1">
    <path d="M 66.629446 50.027172 
L 66.629446 44.700383 
" clip-path="url(#p16926eb4ba)" style="fill: none; stroke: #6a3d9a; stroke-width: 1.5"/>
   </g>
   <g id="line2d_12">
    <defs>
     <path id="mf1781e6213" d="M 2 0 
L -2 -0 
" style="stroke: #6a3d9a"/>
    </defs>
    <g clip-path="url(#p16926eb4ba)">
     <use xlink:href="#mf1781e6213" x="66.629446" y="50.027172" style="fill: #6a3d9a; stroke: #6a3d9a"/>
    </g>
   </g>
   <g id="line2d_13">
    <g clip-path="url(#p16926eb4ba)">
     <use xlink:href="#mf1781e6213" x="66.629446" y="44.700383" style="fill: #6a3d9a; stroke: #6a3d9a"/>
    </g>
   </g>
   <g id="LineCollection_2">
    <path d="M 176.158509 91.046999 
L 176.158509 40.216991 
" clip-path="url(#p16926eb4ba)" style="fill: none; stroke: #bd9e39; stroke-width: 1.5"/>
   </g>
   <g id="line2d_14">
    <defs>
     <path id="m0dfa1bc6d6" d="M 2 0 
L -2 -0 
" style="stroke: #bd9e39"/>
    </defs>
    <g clip-path="url(#p16926eb4ba)">
     <use xlink:href="#m0dfa1bc6d6" x="176.158509" y="91.046999" style="fill: #bd9e39; stroke: #bd9e39"/>
    </g>
   </g>
   <g id="line2d_15">
    <g clip-path="url(#p16926eb4ba)">
     <use xlink:href="#m0dfa1bc6d6" x="176.158509" y="40.216991" style="fill: #bd9e39; stroke: #bd9e39"/>
    </g>
   </g>
   <g id="line2d_16">
    <defs>
     <path id="m82cddc2539" d="M 0 3 
C 0.795609 3 1.55874 2.683901 2.12132 2.12132 
C 2.683901 1.55874 3 0.795609 3 0 
C 3 -0.795609 2.683901 -1.55874 2.12132 -2.12132 
C 1.55874 -2.683901 0.795609 -3 0 -3 
C -0.795609 -3 -1.55874 -2.683901 -2.12132 -2.12132 
C -2.683901 -1.55874 -3 -0.795609 -3 0 
C -3 0.795609 -2.683901 1.55874 -2.12132 2.12132 
C -1.55874 2.683901 -0.795609 3 0 3 
z
" style="stroke: #6a3d9a"/>
    </defs>
    <g clip-path="url(#p16926eb4ba)">
     <use xlink:href="#m82cddc2539" x="66.629446" y="47.363778" style="fill: #6a3d9a; stroke: #6a3d9a"/>
    </g>
   </g>
   <g id="line2d_17">
    <defs>
     <path id="maa70a8df81" d="M 0 3 
C 0.795609 3 1.55874 2.683901 2.12132 2.12132 
C 2.683901 1.55874 3 0.795609 3 0 
C 3 -0.795609 2.683901 -1.55874 2.12132 -2.12132 
C 1.55874 -2.683901 0.795609 -3 0 -3 
C -0.795609 -3 -1.55874 -2.683901 -2.12132 -2.12132 
C -2.683901 -1.55874 -3 -0.795609 -3 0 
C -3 0.795609 -2.683901 1.55874 -2.12132 2.12132 
C -1.55874 2.683901 -0.795609 3 0 3 
z
" style="stroke: #bd9e39"/>
    </defs>
    <g clip-path="url(#p16926eb4ba)">
     <use xlink:href="#maa70a8df81" x="176.158509" y="65.631995" style="fill: #bd9e39; stroke: #bd9e39"/>
    </g>
   </g>
   <g id="patch_5">
    <path d="M 31.0325 262.71452 
L 31.0325 33.085 
" style="fill: none; stroke: #000000; stroke-width: 0.8; stroke-linejoin: miter; stroke-linecap: square"/>
   </g>
   <g id="patch_6">
    <path d="M 211.755454 262.71452 
L 211.755454 33.085 
" style="fill: none; stroke: #000000; stroke-width: 0.8; stroke-linejoin: miter; stroke-linecap: square"/>
   </g>
   <g id="patch_7">
    <path d="M 31.0325 262.71452 
L 211.755454 262.71452 
" style="fill: none; stroke: #000000; stroke-width: 0.8; stroke-linejoin: miter; stroke-linecap: square"/>
   </g>
   <g id="patch_8">
    <path d="M 31.0325 33.085 
L 211.755454 33.085 
" style="fill: none; stroke: #000000; stroke-width: 0.8; stroke-linejoin: miter; stroke-linecap: square"/>
   </g>
  </g>
  <g id="axes_2">
   <g id="patch_9">
    <path d="M 246.678434 262.71452 
L 427.401389 262.71452 
L 427.401389 33.085 
L 246.678434 33.085 
z
" style="fill: #ffffff"/>
   </g>
   <g id="patch_10">
    <path d="M 412.817786 262.71452 
L 413.802315 262.71452 
L 413.802315 244.344158 
L 412.817786 244.344158 
z
" clip-path="url(#p7268fe5bd3)" style="fill: #decbe4; opacity: 0.6; stroke: #decbe4; stroke-linejoin: miter"/>
   </g>
   <g id="patch_11">
    <path d="M 413.802315 262.71452 
L 414.786845 262.71452 
L 414.786845 244.344158 
L 413.802315 244.344158 
z
" clip-path="url(#p7268fe5bd3)" style="fill: #decbe4; opacity: 0.6; stroke: #decbe4; stroke-linejoin: miter"/>
   </g>
   <g id="patch_12">
    <path d="M 414.786845 262.71452 
L 415.771374 262.71452 
L 415.771374 207.603435 
L 414.786845 207.603435 
z
" clip-path="url(#p7268fe5bd3)" style="fill: #decbe4; opacity: 0.6; stroke: #decbe4; stroke-linejoin: miter"/>
   </g>
   <g id="patch_13">
    <path d="M 415.771374 262.71452 
L 416.755904 262.71452 
L 416.755904 115.751627 
L 415.771374 115.751627 
z
" clip-path="url(#p7268fe5bd3)" style="fill: #decbe4; opacity: 0.6; stroke: #decbe4; stroke-linejoin: miter"/>
   </g>
   <g id="patch_14">
    <path d="M 416.755904 262.71452 
L 417.740434 262.71452 
L 417.740434 134.121989 
L 416.755904 134.121989 
z
" clip-path="url(#p7268fe5bd3)" style="fill: #decbe4; opacity: 0.6; stroke: #decbe4; stroke-linejoin: miter"/>
   </g>
   <g id="patch_15">
    <path d="M 417.740434 262.71452 
L 418.724963 262.71452 
L 418.724963 79.010904 
L 417.740434 79.010904 
z
" clip-path="url(#p7268fe5bd3)" style="fill: #decbe4; opacity: 0.6; stroke: #decbe4; stroke-linejoin: miter"/>
   </g>
   <g id="patch_16">
    <path d="M 418.724963 262.71452 
L 419.709493 262.71452 
L 419.709493 134.121989 
L 418.724963 134.121989 
z
" clip-path="url(#p7268fe5bd3)" style="fill: #decbe4; opacity: 0.6; stroke: #decbe4; stroke-linejoin: miter"/>
   </g>
   <g id="patch_17">
    <path d="M 419.709493 262.71452 
L 420.694022 262.71452 
L 420.694022 170.862712 
L 419.709493 170.862712 
z
" clip-path="url(#p7268fe5bd3)" style="fill: #decbe4; opacity: 0.6; stroke: #decbe4; stroke-linejoin: miter"/>
   </g>
   <g id="patch_18">
    <path d="M 420.694022 262.71452 
L 421.678552 262.71452 
L 421.678552 207.603435 
L 420.694022 207.603435 
z
" clip-path="url(#p7268fe5bd3)" style="fill: #decbe4; opacity: 0.6; stroke: #decbe4; stroke-linejoin: miter"/>
   </g>
   <g id="patch_19">
    <path d="M 421.678552 262.71452 
L 422.663082 262.71452 
L 422.663082 170.862712 
L 421.678552 170.862712 
z
" clip-path="url(#p7268fe5bd3)" style="fill: #decbe4; opacity: 0.6; stroke: #decbe4; stroke-linejoin: miter"/>
   </g>
   <g id="patch_20">
    <path d="M 310.036135 262.71452 
L 312.298855 262.71452 
L 312.298855 259.055085 
L 310.036135 259.055085 
z
" clip-path="url(#p7268fe5bd3)" style="fill: #fff2ae; opacity: 0.6; stroke: #fff2ae; stroke-linejoin: miter"/>
   </g>
   <g id="patch_21">
    <path d="M 312.298855 262.71452 
L 314.561575 262.71452 
L 314.561575 262.71452 
L 312.298855 262.71452 
z
" clip-path="url(#p7268fe5bd3)" style="fill: #fff2ae; opacity: 0.6; stroke: #fff2ae; stroke-linejoin: miter"/>
   </g>
   <g id="patch_22">
    <path d="M 314.561575 262.71452 
L 316.824295 262.71452 
L 316.824295 262.71452 
L 314.561575 262.71452 
z
" clip-path="url(#p7268fe5bd3)" style="fill: #fff2ae; opacity: 0.6; stroke: #fff2ae; stroke-linejoin: miter"/>
   </g>
   <g id="patch_23">
    <path d="M 316.824295 262.71452 
L 319.087015 262.71452 
L 319.087015 262.71452 
L 316.824295 262.71452 
z
" clip-path="url(#p7268fe5bd3)" style="fill: #fff2ae; opacity: 0.6; stroke: #fff2ae; stroke-linejoin: miter"/>
   </g>
   <g id="patch_24">
    <path d="M 319.087015 262.71452 
L 321.349734 262.71452 
L 321.349734 262.71452 
L 319.087015 262.71452 
z
" clip-path="url(#p7268fe5bd3)" style="fill: #fff2ae; opacity: 0.6; stroke: #fff2ae; stroke-linejoin: miter"/>
   </g>
   <g id="patch_25">
    <path d="M 321.349734 262.71452 
L 323.612454 262.71452 
L 323.612454 262.71452 
L 321.349734 262.71452 
z
" clip-path="url(#p7268fe5bd3)" style="fill: #fff2ae; opacity: 0.6; stroke: #fff2ae; stroke-linejoin: miter"/>
   </g>
   <g id="patch_26">
    <path d="M 323.612454 262.71452 
L 325.875174 262.71452 
L 325.875174 262.71452 
L 323.612454 262.71452 
z
" clip-path="url(#p7268fe5bd3)" style="fill: #fff2ae; opacity: 0.6; stroke: #fff2ae; stroke-linejoin: miter"/>
   </g>
   <g id="patch_27">
    <path d="M 325.875174 262.71452 
L 328.137894 262.71452 
L 328.137894 259.055085 
L 325.875174 259.055085 
z
" clip-path="url(#p7268fe5bd3)" style="fill: #fff2ae; opacity: 0.6; stroke: #fff2ae; stroke-linejoin: miter"/>
   </g>
   <g id="patch_28">
    <path d="M 328.137894 262.71452 
L 330.400614 262.71452 
L 330.400614 262.71452 
L 328.137894 262.71452 
z
" clip-path="url(#p7268fe5bd3)" style="fill: #fff2ae; opacity: 0.6; stroke: #fff2ae; stroke-linejoin: miter"/>
   </g>
   <g id="patch_29">
    <path d="M 330.400614 262.71452 
L 332.663334 262.71452 
L 332.663334 262.71452 
L 330.400614 262.71452 
z
" clip-path="url(#p7268fe5bd3)" style="fill: #fff2ae; opacity: 0.6; stroke: #fff2ae; stroke-linejoin: miter"/>
   </g>
   <g id="patch_30">
    <path d="M 332.663334 262.71452 
L 334.926054 262.71452 
L 334.926054 248.076782 
L 332.663334 248.076782 
z
" clip-path="url(#p7268fe5bd3)" style="fill: #fff2ae; opacity: 0.6; stroke: #fff2ae; stroke-linejoin: miter"/>
   </g>
   <g id="patch_31">
    <path d="M 334.926054 262.71452 
L 337.188774 262.71452 
L 337.188774 255.395651 
L 334.926054 255.395651 
z
" clip-path="url(#p7268fe5bd3)" style="fill: #fff2ae; opacity: 0.6; stroke: #fff2ae; stroke-linejoin: miter"/>
   </g>
   <g id="patch_32">
    <path d="M 337.188774 262.71452 
L 339.451494 262.71452 
L 339.451494 262.71452 
L 337.188774 262.71452 
z
" clip-path="url(#p7268fe5bd3)" style="fill: #fff2ae; opacity: 0.6; stroke: #fff2ae; stroke-linejoin: miter"/>
   </g>
   <g id="patch_33">
    <path d="M 339.451494 262.71452 
L 341.714214 262.71452 
L 341.714214 259.055085 
L 339.451494 259.055085 
z
" clip-path="url(#p7268fe5bd3)" style="fill: #fff2ae; opacity: 0.6; stroke: #fff2ae; stroke-linejoin: miter"/>
   </g>
   <g id="patch_34">
    <path d="M 341.714214 262.71452 
L 343.976933 262.71452 
L 343.976933 262.71452 
L 341.714214 262.71452 
z
" clip-path="url(#p7268fe5bd3)" style="fill: #fff2ae; opacity: 0.6; stroke: #fff2ae; stroke-linejoin: miter"/>
   </g>
   <g id="patch_35">
    <path d="M 343.976933 262.71452 
L 346.239653 262.71452 
L 346.239653 262.71452 
L 343.976933 262.71452 
z
" clip-path="url(#p7268fe5bd3)" style="fill: #fff2ae; opacity: 0.6; stroke: #fff2ae; stroke-linejoin: miter"/>
   </g>
   <g id="patch_36">
    <path d="M 346.239653 262.71452 
L 348.502373 262.71452 
L 348.502373 262.71452 
L 346.239653 262.71452 
z
" clip-path="url(#p7268fe5bd3)" style="fill: #fff2ae; opacity: 0.6; stroke: #fff2ae; stroke-linejoin: miter"/>
   </g>
   <g id="patch_37">
    <path d="M 348.502373 262.71452 
L 350.765093 262.71452 
L 350.765093 262.71452 
L 348.502373 262.71452 
z
" clip-path="url(#p7268fe5bd3)" style="fill: #fff2ae; opacity: 0.6; stroke: #fff2ae; stroke-linejoin: miter"/>
   </g>
   <g id="patch_38">
    <path d="M 350.765093 262.71452 
L 353.027813 262.71452 
L 353.027813 259.055085 
L 350.765093 259.055085 
z
" clip-path="url(#p7268fe5bd3)" style="fill: #fff2ae; opacity: 0.6; stroke: #fff2ae; stroke-linejoin: miter"/>
   </g>
   <g id="patch_39">
    <path d="M 353.027813 262.71452 
L 355.290533 262.71452 
L 355.290533 262.71452 
L 353.027813 262.71452 
z
" clip-path="url(#p7268fe5bd3)" style="fill: #fff2ae; opacity: 0.6; stroke: #fff2ae; stroke-linejoin: miter"/>
   </g>
   <g id="patch_40">
    <path d="M 355.290533 262.71452 
L 357.553253 262.71452 
L 357.553253 262.71452 
L 355.290533 262.71452 
z
" clip-path="url(#p7268fe5bd3)" style="fill: #fff2ae; opacity: 0.6; stroke: #fff2ae; stroke-linejoin: miter"/>
   </g>
   <g id="patch_41">
    <path d="M 357.553253 262.71452 
L 359.815973 262.71452 
L 359.815973 262.71452 
L 357.553253 262.71452 
z
" clip-path="url(#p7268fe5bd3)" style="fill: #fff2ae; opacity: 0.6; stroke: #fff2ae; stroke-linejoin: miter"/>
   </g>
   <g id="patch_42">
    <path d="M 359.815973 262.71452 
L 362.078693 262.71452 
L 362.078693 262.71452 
L 359.815973 262.71452 
z
" clip-path="url(#p7268fe5bd3)" style="fill: #fff2ae; opacity: 0.6; stroke: #fff2ae; stroke-linejoin: miter"/>
   </g>
   <g id="patch_43">
    <path d="M 362.078693 262.71452 
L 364.341413 262.71452 
L 364.341413 244.417347 
L 362.078693 244.417347 
z
" clip-path="url(#p7268fe5bd3)" style="fill: #fff2ae; opacity: 0.6; stroke: #fff2ae; stroke-linejoin: miter"/>
   </g>
   <g id="patch_44">
    <path d="M 364.341413 262.71452 
L 366.604133 262.71452 
L 366.604133 262.71452 
L 364.341413 262.71452 
z
" clip-path="url(#p7268fe5bd3)" style="fill: #fff2ae; opacity: 0.6; stroke: #fff2ae; stroke-linejoin: miter"/>
   </g>
   <g id="patch_45">
    <path d="M 366.604133 262.71452 
L 368.866852 262.71452 
L 368.866852 244.417347 
L 366.604133 244.417347 
z
" clip-path="url(#p7268fe5bd3)" style="fill: #fff2ae; opacity: 0.6; stroke: #fff2ae; stroke-linejoin: miter"/>
   </g>
   <g id="patch_46">
    <path d="M 368.866852 262.71452 
L 371.129572 262.71452 
L 371.129572 259.055085 
L 368.866852 259.055085 
z
" clip-path="url(#p7268fe5bd3)" style="fill: #fff2ae; opacity: 0.6; stroke: #fff2ae; stroke-linejoin: miter"/>
   </g>
   <g id="patch_47">
    <path d="M 371.129572 262.71452 
L 373.392292 262.71452 
L 373.392292 255.395651 
L 371.129572 255.395651 
z
" clip-path="url(#p7268fe5bd3)" style="fill: #fff2ae; opacity: 0.6; stroke: #fff2ae; stroke-linejoin: miter"/>
   </g>
   <g id="patch_48">
    <path d="M 373.392292 262.71452 
L 375.655012 262.71452 
L 375.655012 255.395651 
L 373.392292 255.395651 
z
" clip-path="url(#p7268fe5bd3)" style="fill: #fff2ae; opacity: 0.6; stroke: #fff2ae; stroke-linejoin: miter"/>
   </g>
   <g id="patch_49">
    <path d="M 375.655012 262.71452 
L 377.917732 262.71452 
L 377.917732 255.395651 
L 375.655012 255.395651 
z
" clip-path="url(#p7268fe5bd3)" style="fill: #fff2ae; opacity: 0.6; stroke: #fff2ae; stroke-linejoin: miter"/>
   </g>
   <g id="patch_50">
    <path d="M 377.917732 262.71452 
L 380.180452 262.71452 
L 380.180452 255.395651 
L 377.917732 255.395651 
z
" clip-path="url(#p7268fe5bd3)" style="fill: #fff2ae; opacity: 0.6; stroke: #fff2ae; stroke-linejoin: miter"/>
   </g>
   <g id="patch_51">
    <path d="M 380.180452 262.71452 
L 382.443172 262.71452 
L 382.443172 251.736216 
L 380.180452 251.736216 
z
" clip-path="url(#p7268fe5bd3)" style="fill: #fff2ae; opacity: 0.6; stroke: #fff2ae; stroke-linejoin: miter"/>
   </g>
   <g id="patch_52">
    <path d="M 382.443172 262.71452 
L 384.705892 262.71452 
L 384.705892 237.098478 
L 382.443172 237.098478 
z
" clip-path="url(#p7268fe5bd3)" style="fill: #fff2ae; opacity: 0.6; stroke: #fff2ae; stroke-linejoin: miter"/>
   </g>
   <g id="patch_53">
    <path d="M 384.705892 262.71452 
L 386.968612 262.71452 
L 386.968612 248.076782 
L 384.705892 248.076782 
z
" clip-path="url(#p7268fe5bd3)" style="fill: #fff2ae; opacity: 0.6; stroke: #fff2ae; stroke-linejoin: miter"/>
   </g>
   <g id="patch_54">
    <path d="M 386.968612 262.71452 
L 389.231332 262.71452 
L 389.231332 237.098478 
L 386.968612 237.098478 
z
" clip-path="url(#p7268fe5bd3)" style="fill: #fff2ae; opacity: 0.6; stroke: #fff2ae; stroke-linejoin: miter"/>
   </g>
   <g id="patch_55">
    <path d="M 389.231332 262.71452 
L 391.494051 262.71452 
L 391.494051 251.736216 
L 389.231332 251.736216 
z
" clip-path="url(#p7268fe5bd3)" style="fill: #fff2ae; opacity: 0.6; stroke: #fff2ae; stroke-linejoin: miter"/>
   </g>
   <g id="patch_56">
    <path d="M 391.494051 262.71452 
L 393.756771 262.71452 
L 393.756771 251.736216 
L 391.494051 251.736216 
z
" clip-path="url(#p7268fe5bd3)" style="fill: #fff2ae; opacity: 0.6; stroke: #fff2ae; stroke-linejoin: miter"/>
   </g>
   <g id="patch_57">
    <path d="M 393.756771 262.71452 
L 396.019491 262.71452 
L 396.019491 255.395651 
L 393.756771 255.395651 
z
" clip-path="url(#p7268fe5bd3)" style="fill: #fff2ae; opacity: 0.6; stroke: #fff2ae; stroke-linejoin: miter"/>
   </g>
   <g id="patch_58">
    <path d="M 396.019491 262.71452 
L 398.282211 262.71452 
L 398.282211 240.757913 
L 396.019491 240.757913 
z
" clip-path="url(#p7268fe5bd3)" style="fill: #fff2ae; opacity: 0.6; stroke: #fff2ae; stroke-linejoin: miter"/>
   </g>
   <g id="patch_59">
    <path d="M 398.282211 262.71452 
L 400.544931 262.71452 
L 400.544931 248.076782 
L 398.282211 248.076782 
z
" clip-path="url(#p7268fe5bd3)" style="fill: #fff2ae; opacity: 0.6; stroke: #fff2ae; stroke-linejoin: miter"/>
   </g>
   <g id="patch_60">
    <path d="M 400.544931 262.71452 
L 402.807651 262.71452 
L 402.807651 259.055085 
L 400.544931 259.055085 
z
" clip-path="url(#p7268fe5bd3)" style="fill: #fff2ae; opacity: 0.6; stroke: #fff2ae; stroke-linejoin: miter"/>
   </g>
   <g id="patch_61">
    <path d="M 402.807651 262.71452 
L 405.070371 262.71452 
L 405.070371 259.055085 
L 402.807651 259.055085 
z
" clip-path="url(#p7268fe5bd3)" style="fill: #fff2ae; opacity: 0.6; stroke: #fff2ae; stroke-linejoin: miter"/>
   </g>
   <g id="patch_62">
    <path d="M 405.070371 262.71452 
L 407.333091 262.71452 
L 407.333091 222.46074 
L 405.070371 222.46074 
z
" clip-path="url(#p7268fe5bd3)" style="fill: #fff2ae; opacity: 0.6; stroke: #fff2ae; stroke-linejoin: miter"/>
   </g>
   <g id="patch_63">
    <path d="M 407.333091 262.71452 
L 409.595811 262.71452 
L 409.595811 196.844698 
L 407.333091 196.844698 
z
" clip-path="url(#p7268fe5bd3)" style="fill: #fff2ae; opacity: 0.6; stroke: #fff2ae; stroke-linejoin: miter"/>
   </g>
   <g id="patch_64">
    <path d="M 409.595811 262.71452 
L 411.858531 262.71452 
L 411.858531 163.909786 
L 409.595811 163.909786 
z
" clip-path="url(#p7268fe5bd3)" style="fill: #fff2ae; opacity: 0.6; stroke: #fff2ae; stroke-linejoin: miter"/>
   </g>
   <g id="patch_65">
    <path d="M 411.858531 262.71452 
L 414.12125 262.71452 
L 414.12125 127.31544 
L 411.858531 127.31544 
z
" clip-path="url(#p7268fe5bd3)" style="fill: #fff2ae; opacity: 0.6; stroke: #fff2ae; stroke-linejoin: miter"/>
   </g>
   <g id="patch_66">
    <path d="M 414.12125 262.71452 
L 416.38397 262.71452 
L 416.38397 152.931483 
L 414.12125 152.931483 
z
" clip-path="url(#p7268fe5bd3)" style="fill: #fff2ae; opacity: 0.6; stroke: #fff2ae; stroke-linejoin: miter"/>
   </g>
   <g id="patch_67">
    <path d="M 416.38397 262.71452 
L 418.64669 262.71452 
L 418.64669 149.272048 
L 416.38397 149.272048 
z
" clip-path="url(#p7268fe5bd3)" style="fill: #fff2ae; opacity: 0.6; stroke: #fff2ae; stroke-linejoin: miter"/>
   </g>
   <g id="patch_68">
    <path d="M 418.64669 262.71452 
L 420.90941 262.71452 
L 420.90941 204.163567 
L 418.64669 204.163567 
z
" clip-path="url(#p7268fe5bd3)" style="fill: #fff2ae; opacity: 0.6; stroke: #fff2ae; stroke-linejoin: miter"/>
   </g>
   <g id="patch_69">
    <path d="M 420.90941 262.71452 
L 423.17213 262.71452 
L 423.17213 222.46074 
L 420.90941 222.46074 
z
" clip-path="url(#p7268fe5bd3)" style="fill: #fff2ae; opacity: 0.6; stroke: #fff2ae; stroke-linejoin: miter"/>
   </g>
   <g id="matplotlib.axis_3">
    <g id="xtick_3">
     <g id="line2d_18">
      <g>
       <use xlink:href="#m220fdb8bb7" x="246.678434" y="262.71452" style="stroke: #000000; stroke-width: 0.8"/>
      </g>
     </g>
     <g id="text_13">
      <!-- 0 -->
      <g transform="translate(244.133434 275.79327) scale(0.08 -0.08)">
       <use xlink:href="#DejaVuSans-30"/>
      </g>
     </g>
    </g>
    <g id="xtick_4">
     <g id="line2d_19">
      <g>
       <use xlink:href="#m220fdb8bb7" x="269.268804" y="262.71452" style="stroke: #000000; stroke-width: 0.8"/>
      </g>
     </g>
     <g id="text_14">
      <!-- 1 -->
      <g transform="translate(266.723804 275.79327) scale(0.08 -0.08)">
       <use xlink:href="#DejaVuSans-31"/>
      </g>
     </g>
    </g>
    <g id="xtick_5">
     <g id="line2d_20">
      <g>
       <use xlink:href="#m220fdb8bb7" x="291.859173" y="262.71452" style="stroke: #000000; stroke-width: 0.8"/>
      </g>
     </g>
     <g id="text_15">
      <!-- 2 -->
      <g transform="translate(289.314173 275.79327) scale(0.08 -0.08)">
       <use xlink:href="#DejaVuSans-32"/>
      </g>
     </g>
    </g>
    <g id="xtick_6">
     <g id="line2d_21">
      <g>
       <use xlink:href="#m220fdb8bb7" x="314.449542" y="262.71452" style="stroke: #000000; stroke-width: 0.8"/>
      </g>
     </g>
     <g id="text_16">
      <!-- 3 -->
      <g transform="translate(311.904542 275.79327) scale(0.08 -0.08)">
       <use xlink:href="#DejaVuSans-33"/>
      </g>
     </g>
    </g>
    <g id="xtick_7">
     <g id="line2d_22">
      <g>
       <use xlink:href="#m220fdb8bb7" x="337.039912" y="262.71452" style="stroke: #000000; stroke-width: 0.8"/>
      </g>
     </g>
     <g id="text_17">
      <!-- 4 -->
      <g transform="translate(334.494912 275.79327) scale(0.08 -0.08)">
       <use xlink:href="#DejaVuSans-34"/>
      </g>
     </g>
    </g>
    <g id="xtick_8">
     <g id="line2d_23">
      <g>
       <use xlink:href="#m220fdb8bb7" x="359.630281" y="262.71452" style="stroke: #000000; stroke-width: 0.8"/>
      </g>
     </g>
     <g id="text_18">
      <!-- 5 -->
      <g transform="translate(357.085281 275.79327) scale(0.08 -0.08)">
       <use xlink:href="#DejaVuSans-35"/>
      </g>
     </g>
    </g>
    <g id="xtick_9">
     <g id="line2d_24">
      <g>
       <use xlink:href="#m220fdb8bb7" x="382.22065" y="262.71452" style="stroke: #000000; stroke-width: 0.8"/>
      </g>
     </g>
     <g id="text_19">
      <!-- 6 -->
      <g transform="translate(379.67565 275.79327) scale(0.08 -0.08)">
       <use xlink:href="#DejaVuSans-36"/>
      </g>
     </g>
    </g>
    <g id="xtick_10">
     <g id="line2d_25">
      <g>
       <use xlink:href="#m220fdb8bb7" x="404.811019" y="262.71452" style="stroke: #000000; stroke-width: 0.8"/>
      </g>
     </g>
     <g id="text_20">
      <!-- 7 -->
      <g transform="translate(402.266019 275.79327) scale(0.08 -0.08)">
       <use xlink:href="#DejaVuSans-37"/>
      </g>
     </g>
    </g>
    <g id="xtick_11">
     <g id="line2d_26">
      <g>
       <use xlink:href="#m220fdb8bb7" x="427.401389" y="262.71452" style="stroke: #000000; stroke-width: 0.8"/>
      </g>
     </g>
     <g id="text_21">
      <!-- 8 -->
      <g transform="translate(424.856389 275.79327) scale(0.08 -0.08)">
       <use xlink:href="#DejaVuSans-38"/>
      </g>
     </g>
    </g>
    <g id="text_22">
     <!-- Synaptic weights -->
     <g transform="translate(302.887412 287.53577) scale(0.08 -0.08)">
      <use xlink:href="#DejaVuSans-53"/>
      <use xlink:href="#DejaVuSans-79" x="63.476562"/>
      <use xlink:href="#DejaVuSans-6e" x="122.65625"/>
      <use xlink:href="#DejaVuSans-61" x="186.035156"/>
      <use xlink:href="#DejaVuSans-70" x="247.314453"/>
      <use xlink:href="#DejaVuSans-74" x="310.791016"/>
      <use xlink:href="#DejaVuSans-69" x="350"/>
      <use xlink:href="#DejaVuSans-63" x="377.783203"/>
      <use xlink:href="#DejaVuSans-20" x="432.763672"/>
      <use xlink:href="#DejaVuSans-77" x="464.550781"/>
      <use xlink:href="#DejaVuSans-65" x="546.337891"/>
      <use xlink:href="#DejaVuSans-69" x="607.861328"/>
      <use xlink:href="#DejaVuSans-67" x="635.644531"/>
      <use xlink:href="#DejaVuSans-68" x="699.121094"/>
      <use xlink:href="#DejaVuSans-74" x="762.5"/>
      <use xlink:href="#DejaVuSans-73" x="801.708984"/>
     </g>
    </g>
   </g>
   <g id="matplotlib.axis_4">
    <g id="ytick_10">
     <g id="line2d_27">
      <g>
       <use xlink:href="#m676cfd44f2" x="246.678434" y="262.71452" style="stroke: #000000; stroke-width: 0.8"/>
      </g>
     </g>
     <g id="text_23">
      <!-- 0 -->
      <g transform="translate(234.588434 265.753895) scale(0.08 -0.08)">
       <use xlink:href="#DejaVuSans-30"/>
      </g>
     </g>
    </g>
    <g id="ytick_11">
     <g id="line2d_28">
      <g>
       <use xlink:href="#m676cfd44f2" x="246.678434" y="216.788616" style="stroke: #000000; stroke-width: 0.8"/>
      </g>
     </g>
     <g id="text_24">
      <!-- 5 -->
      <g transform="translate(234.588434 219.827991) scale(0.08 -0.08)">
       <use xlink:href="#DejaVuSans-35"/>
      </g>
     </g>
    </g>
    <g id="ytick_12">
     <g id="line2d_29">
      <g>
       <use xlink:href="#m676cfd44f2" x="246.678434" y="170.862712" style="stroke: #000000; stroke-width: 0.8"/>
      </g>
     </g>
     <g id="text_25">
      <!-- 10 -->
      <g transform="translate(229.498434 173.902087) scale(0.08 -0.08)">
       <use xlink:href="#DejaVuSans-31"/>
       <use xlink:href="#DejaVuSans-30" x="63.623047"/>
      </g>
     </g>
    </g>
    <g id="ytick_13">
     <g id="line2d_30">
      <g>
       <use xlink:href="#m676cfd44f2" x="246.678434" y="124.936808" style="stroke: #000000; stroke-width: 0.8"/>
      </g>
     </g>
     <g id="text_26">
      <!-- 15 -->
      <g transform="translate(229.498434 127.976183) scale(0.08 -0.08)">
       <use xlink:href="#DejaVuSans-31"/>
       <use xlink:href="#DejaVuSans-35" x="63.623047"/>
      </g>
     </g>
    </g>
    <g id="ytick_14">
     <g id="line2d_31">
      <g>
       <use xlink:href="#m676cfd44f2" x="246.678434" y="79.010904" style="stroke: #000000; stroke-width: 0.8"/>
      </g>
     </g>
     <g id="text_27">
      <!-- 20 -->
      <g transform="translate(229.498434 82.050279) scale(0.08 -0.08)">
       <use xlink:href="#DejaVuSans-32"/>
       <use xlink:href="#DejaVuSans-30" x="63.623047"/>
      </g>
     </g>
    </g>
    <g id="ytick_15">
     <g id="line2d_32">
      <g>
       <use xlink:href="#m676cfd44f2" x="246.678434" y="33.085" style="stroke: #000000; stroke-width: 0.8"/>
      </g>
     </g>
     <g id="text_28">
      <!-- 25 -->
      <g transform="translate(229.498434 36.124375) scale(0.08 -0.08)">
       <use xlink:href="#DejaVuSans-32"/>
       <use xlink:href="#DejaVuSans-35" x="63.623047"/>
      </g>
     </g>
    </g>
    <g id="text_29">
     <!-- Abundance(%) -->
     <g transform="translate(223.834684 177.35351) rotate(-90) scale(0.08 -0.08)">
      <defs>
       <path id="DejaVuSans-62" d="M 3116 1747 
Q 3116 2381 2855 2742 
Q 2594 3103 2138 3103 
Q 1681 3103 1420 2742 
Q 1159 2381 1159 1747 
Q 1159 1113 1420 752 
Q 1681 391 2138 391 
Q 2594 391 2855 752 
Q 3116 1113 3116 1747 
z
M 1159 2969 
Q 1341 3281 1617 3432 
Q 1894 3584 2278 3584 
Q 2916 3584 3314 3078 
Q 3713 2572 3713 1747 
Q 3713 922 3314 415 
Q 2916 -91 2278 -91 
Q 1894 -91 1617 61 
Q 1341 213 1159 525 
L 1159 0 
L 581 0 
L 581 4863 
L 1159 4863 
L 1159 2969 
z
" transform="scale(0.015625)"/>
       <path id="DejaVuSans-75" d="M 544 1381 
L 544 3500 
L 1119 3500 
L 1119 1403 
Q 1119 906 1312 657 
Q 1506 409 1894 409 
Q 2359 409 2629 706 
Q 2900 1003 2900 1516 
L 2900 3500 
L 3475 3500 
L 3475 0 
L 2900 0 
L 2900 538 
Q 2691 219 2414 64 
Q 2138 -91 1772 -91 
Q 1169 -91 856 284 
Q 544 659 544 1381 
z
M 1991 3584 
L 1991 3584 
z
" transform="scale(0.015625)"/>
       <path id="DejaVuSans-64" d="M 2906 2969 
L 2906 4863 
L 3481 4863 
L 3481 0 
L 2906 0 
L 2906 525 
Q 2725 213 2448 61 
Q 2172 -91 1784 -91 
Q 1150 -91 751 415 
Q 353 922 353 1747 
Q 353 2572 751 3078 
Q 1150 3584 1784 3584 
Q 2172 3584 2448 3432 
Q 2725 3281 2906 2969 
z
M 947 1747 
Q 947 1113 1208 752 
Q 1469 391 1925 391 
Q 2381 391 2643 752 
Q 2906 1113 2906 1747 
Q 2906 2381 2643 2742 
Q 2381 3103 1925 3103 
Q 1469 3103 1208 2742 
Q 947 2381 947 1747 
z
" transform="scale(0.015625)"/>
       <path id="DejaVuSans-28" d="M 1984 4856 
Q 1566 4138 1362 3434 
Q 1159 2731 1159 2009 
Q 1159 1288 1364 580 
Q 1569 -128 1984 -844 
L 1484 -844 
Q 1016 -109 783 600 
Q 550 1309 550 2009 
Q 550 2706 781 3412 
Q 1013 4119 1484 4856 
L 1984 4856 
z
" transform="scale(0.015625)"/>
       <path id="DejaVuSans-25" d="M 4653 2053 
Q 4381 2053 4226 1822 
Q 4072 1591 4072 1178 
Q 4072 772 4226 539 
Q 4381 306 4653 306 
Q 4919 306 5073 539 
Q 5228 772 5228 1178 
Q 5228 1588 5073 1820 
Q 4919 2053 4653 2053 
z
M 4653 2450 
Q 5147 2450 5437 2106 
Q 5728 1763 5728 1178 
Q 5728 594 5436 251 
Q 5144 -91 4653 -91 
Q 4153 -91 3862 251 
Q 3572 594 3572 1178 
Q 3572 1766 3864 2108 
Q 4156 2450 4653 2450 
z
M 1428 4353 
Q 1159 4353 1004 4120 
Q 850 3888 850 3481 
Q 850 3069 1003 2837 
Q 1156 2606 1428 2606 
Q 1700 2606 1854 2837 
Q 2009 3069 2009 3481 
Q 2009 3884 1853 4118 
Q 1697 4353 1428 4353 
z
M 4250 4750 
L 4750 4750 
L 1831 -91 
L 1331 -91 
L 4250 4750 
z
M 1428 4750 
Q 1922 4750 2215 4408 
Q 2509 4066 2509 3481 
Q 2509 2891 2217 2550 
Q 1925 2209 1428 2209 
Q 931 2209 642 2551 
Q 353 2894 353 3481 
Q 353 4063 643 4406 
Q 934 4750 1428 4750 
z
" transform="scale(0.015625)"/>
       <path id="DejaVuSans-29" d="M 513 4856 
L 1013 4856 
Q 1481 4119 1714 3412 
Q 1947 2706 1947 2009 
Q 1947 1309 1714 600 
Q 1481 -109 1013 -844 
L 513 -844 
Q 928 -128 1133 580 
Q 1338 1288 1338 2009 
Q 1338 2731 1133 3434 
Q 928 4138 513 4856 
z
" transform="scale(0.015625)"/>
      </defs>
      <use xlink:href="#DejaVuSans-41"/>
      <use xlink:href="#DejaVuSans-62" x="68.408203"/>
      <use xlink:href="#DejaVuSans-75" x="131.884766"/>
      <use xlink:href="#DejaVuSans-6e" x="195.263672"/>
      <use xlink:href="#DejaVuSans-64" x="258.642578"/>
      <use xlink:href="#DejaVuSans-61" x="322.119141"/>
      <use xlink:href="#DejaVuSans-6e" x="383.398438"/>
      <use xlink:href="#DejaVuSans-63" x="446.777344"/>
      <use xlink:href="#DejaVuSans-65" x="501.757812"/>
      <use xlink:href="#DejaVuSans-28" x="563.28125"/>
      <use xlink:href="#DejaVuSans-25" x="602.294922"/>
      <use xlink:href="#DejaVuSans-29" x="697.314453"/>
     </g>
    </g>
   </g>
   <g id="patch_70">
    <path d="M 246.678434 262.71452 
L 246.678434 33.085 
" style="fill: none; stroke: #000000; stroke-width: 0.8; stroke-linejoin: miter; stroke-linecap: square"/>
   </g>
   <g id="patch_71">
    <path d="M 427.401389 262.71452 
L 427.401389 33.085 
" style="fill: none; stroke: #000000; stroke-width: 0.8; stroke-linejoin: miter; stroke-linecap: square"/>
   </g>
   <g id="patch_72">
    <path d="M 246.678434 262.71452 
L 427.401389 262.71452 
" style="fill: none; stroke: #000000; stroke-width: 0.8; stroke-linejoin: miter; stroke-linecap: square"/>
   </g>
   <g id="patch_73">
    <path d="M 246.678434 33.085 
L 427.401389 33.085 
" style="fill: none; stroke: #000000; stroke-width: 0.8; stroke-linejoin: miter; stroke-linecap: square"/>
   </g>
   <g id="legend_1">
    <g id="patch_74">
     <path d="M 447.073684 33.085 
L 503.599934 33.085 
Q 505.199934 33.085 505.199934 31.485 
L 505.199934 8.8 
Q 505.199934 7.2 503.599934 7.2 
L 447.073684 7.2 
Q 445.473684 7.2 445.473684 8.8 
L 445.473684 31.485 
Q 445.473684 33.085 447.073684 33.085 
z
" style="fill: #ffffff; opacity: 0.8; stroke: #cccccc; stroke-linejoin: miter"/>
    </g>
    <g id="patch_75">
     <path d="M 448.673684 16.47875 
L 464.673684 16.47875 
L 464.673684 10.87875 
L 448.673684 10.87875 
z
" style="fill: #decbe4; opacity: 0.6; stroke: #decbe4; stroke-linejoin: miter"/>
    </g>
    <g id="text_30">
     <!-- AcD -->
     <g transform="translate(471.073684 16.47875) scale(0.08 -0.08)">
      <use xlink:href="#DejaVuSans-41"/>
      <use xlink:href="#DejaVuSans-63" x="66.658203"/>
      <use xlink:href="#DejaVuSans-44" x="121.638672"/>
     </g>
    </g>
    <g id="patch_76">
     <path d="M 448.673684 28.22125 
L 464.673684 28.22125 
L 464.673684 22.62125 
L 448.673684 22.62125 
z
" style="fill: #fff2ae; opacity: 0.6; stroke: #fff2ae; stroke-linejoin: miter"/>
    </g>
    <g id="text_31">
     <!-- nonAcD -->
     <g transform="translate(471.073684 28.22125) scale(0.08 -0.08)">
      <use xlink:href="#DejaVuSans-6e"/>
      <use xlink:href="#DejaVuSans-6f" x="63.378906"/>
      <use xlink:href="#DejaVuSans-6e" x="124.560547"/>
      <use xlink:href="#DejaVuSans-41" x="187.939453"/>
      <use xlink:href="#DejaVuSans-63" x="254.597656"/>
      <use xlink:href="#DejaVuSans-44" x="309.578125"/>
     </g>
    </g>
   </g>
  </g>
 </g>
 <defs>
  <clipPath id="p16926eb4ba">
   <rect x="31.0325" y="33.085" width="180.722954" height="229.62952"/>
  </clipPath>
  <clipPath id="p7268fe5bd3">
   <rect x="246.678434" y="33.085" width="180.722954" height="229.62952"/>
  </clipPath>
 </defs>
</svg>
